<mxfile host="app.diagrams.net" modified="2020-11-10T13:52:38.730Z" agent="5.0 (Windows)" etag="iFYjAemKRGJsx4DtOXPs" version="13.9.3" type="github">
  <diagram id="eMQ5TRxTmStjorEiqi1c" name="Page-1">
    <mxGraphModel dx="2782" dy="1010" grid="1" gridSize="10" guides="1" tooltips="1" connect="1" arrows="1" fold="1" page="1" pageScale="1" pageWidth="827" pageHeight="1169" math="0" shadow="0">
      <root>
        <mxCell id="0" />
        <mxCell id="1" parent="0" />
        <mxCell id="m6Jd8tHprvZd4_-lkX7Y-78" value="" style="whiteSpace=wrap;html=1;aspect=fixed;" vertex="1" parent="1">
          <mxGeometry x="-625" y="50" width="190" height="190" as="geometry" />
        </mxCell>
        <mxCell id="m6Jd8tHprvZd4_-lkX7Y-76" value="Relationship" style="shape=rhombus;perimeter=rhombusPerimeter;whiteSpace=wrap;html=1;align=center;" vertex="1" parent="1">
          <mxGeometry x="-390" y="185" width="140" height="80" as="geometry" />
        </mxCell>
        <mxCell id="m6Jd8tHprvZd4_-lkX7Y-30" value="" style="rounded=1;arcSize=10;whiteSpace=wrap;html=1;align=center;" vertex="1" parent="1">
          <mxGeometry x="140" y="400" width="680" height="530" as="geometry" />
        </mxCell>
        <mxCell id="tAxBk4xrzIQZD8wi3jXY-1" value="Club Member" style="swimlane;fontStyle=0;childLayout=stackLayout;horizontal=1;startSize=26;horizontalStack=0;resizeParent=1;resizeParentMax=0;resizeLast=0;collapsible=1;marginBottom=0;align=center;fontSize=14;" parent="1" vertex="1">
          <mxGeometry x="-160" y="60" width="160" height="300" as="geometry" />
        </mxCell>
        <mxCell id="tAxBk4xrzIQZD8wi3jXY-2" value="memberNumber" style="text;strokeColor=none;fillColor=none;spacingLeft=4;spacingRight=4;overflow=hidden;rotatable=0;points=[[0,0.5],[1,0.5]];portConstraint=eastwest;fontSize=12;fontStyle=4" parent="tAxBk4xrzIQZD8wi3jXY-1" vertex="1">
          <mxGeometry y="26" width="160" height="30" as="geometry" />
        </mxCell>
        <mxCell id="tAxBk4xrzIQZD8wi3jXY-3" value="firstName" style="text;strokeColor=none;fillColor=none;spacingLeft=4;spacingRight=4;overflow=hidden;rotatable=0;points=[[0,0.5],[1,0.5]];portConstraint=eastwest;fontSize=12;" parent="tAxBk4xrzIQZD8wi3jXY-1" vertex="1">
          <mxGeometry y="56" width="160" height="30" as="geometry" />
        </mxCell>
        <mxCell id="tAxBk4xrzIQZD8wi3jXY-4" value="lastName" style="text;strokeColor=none;fillColor=none;spacingLeft=4;spacingRight=4;overflow=hidden;rotatable=0;points=[[0,0.5],[1,0.5]];portConstraint=eastwest;fontSize=12;" parent="tAxBk4xrzIQZD8wi3jXY-1" vertex="1">
          <mxGeometry y="86" width="160" height="34" as="geometry" />
        </mxCell>
        <mxCell id="tAxBk4xrzIQZD8wi3jXY-6" value="dateOfBirth" style="text;strokeColor=none;fillColor=none;spacingLeft=4;spacingRight=4;overflow=hidden;rotatable=0;points=[[0,0.5],[1,0.5]];portConstraint=eastwest;fontSize=12;" parent="tAxBk4xrzIQZD8wi3jXY-1" vertex="1">
          <mxGeometry y="120" width="160" height="30" as="geometry" />
        </mxCell>
        <mxCell id="tAxBk4xrzIQZD8wi3jXY-7" value="sex" style="text;strokeColor=none;fillColor=none;spacingLeft=4;spacingRight=4;overflow=hidden;rotatable=0;points=[[0,0.5],[1,0.5]];portConstraint=eastwest;fontSize=12;" parent="tAxBk4xrzIQZD8wi3jXY-1" vertex="1">
          <mxGeometry y="150" width="160" height="30" as="geometry" />
        </mxCell>
        <mxCell id="tAxBk4xrzIQZD8wi3jXY-8" value="familyStatus -?-" style="text;strokeColor=none;fillColor=none;spacingLeft=4;spacingRight=4;overflow=hidden;rotatable=0;points=[[0,0.5],[1,0.5]];portConstraint=eastwest;fontSize=12;" parent="tAxBk4xrzIQZD8wi3jXY-1" vertex="1">
          <mxGeometry y="180" width="160" height="30" as="geometry" />
        </mxCell>
        <mxCell id="tAxBk4xrzIQZD8wi3jXY-10" value="joinDate" style="text;strokeColor=none;fillColor=none;spacingLeft=4;spacingRight=4;overflow=hidden;rotatable=0;points=[[0,0.5],[1,0.5]];portConstraint=eastwest;fontSize=12;" parent="tAxBk4xrzIQZD8wi3jXY-1" vertex="1">
          <mxGeometry y="210" width="160" height="30" as="geometry" />
        </mxCell>
        <mxCell id="tAxBk4xrzIQZD8wi3jXY-12" value="email" style="text;strokeColor=none;fillColor=none;spacingLeft=4;spacingRight=4;overflow=hidden;rotatable=0;points=[[0,0.5],[1,0.5]];portConstraint=eastwest;fontSize=12;" parent="tAxBk4xrzIQZD8wi3jXY-1" vertex="1">
          <mxGeometry y="240" width="160" height="30" as="geometry" />
        </mxCell>
        <mxCell id="tAxBk4xrzIQZD8wi3jXY-22" value="phoneNumber" style="text;strokeColor=none;fillColor=none;spacingLeft=4;spacingRight=4;overflow=hidden;rotatable=0;points=[[0,0.5],[1,0.5]];portConstraint=eastwest;fontSize=12;" parent="tAxBk4xrzIQZD8wi3jXY-1" vertex="1">
          <mxGeometry y="270" width="160" height="30" as="geometry" />
        </mxCell>
        <mxCell id="tAxBk4xrzIQZD8wi3jXY-23" value="BrandStore" style="swimlane;fontStyle=0;childLayout=stackLayout;horizontal=1;startSize=26;horizontalStack=0;resizeParent=1;resizeParentMax=0;resizeLast=0;collapsible=1;marginBottom=0;align=center;fontSize=14;" parent="1" vertex="1">
          <mxGeometry x="440" y="100" width="160" height="86" as="geometry" />
        </mxCell>
        <mxCell id="tAxBk4xrzIQZD8wi3jXY-24" value="storeNumber" style="text;strokeColor=none;fillColor=none;spacingLeft=4;spacingRight=4;overflow=hidden;rotatable=0;points=[[0,0.5],[1,0.5]];portConstraint=eastwest;fontSize=12;fontStyle=4" parent="tAxBk4xrzIQZD8wi3jXY-23" vertex="1">
          <mxGeometry y="26" width="160" height="30" as="geometry" />
        </mxCell>
        <mxCell id="tAxBk4xrzIQZD8wi3jXY-26" value="nameOfBrand" style="text;strokeColor=none;fillColor=none;spacingLeft=4;spacingRight=4;overflow=hidden;rotatable=0;points=[[0,0.5],[1,0.5]];portConstraint=eastwest;fontSize=12;" parent="tAxBk4xrzIQZD8wi3jXY-23" vertex="1">
          <mxGeometry y="56" width="160" height="30" as="geometry" />
        </mxCell>
        <mxCell id="tAxBk4xrzIQZD8wi3jXY-27" value="Accept Malling" style="shape=rhombus;perimeter=rhombusPerimeter;whiteSpace=wrap;html=1;align=center;" parent="1" vertex="1">
          <mxGeometry x="241" y="113" width="120" height="60" as="geometry" />
        </mxCell>
        <mxCell id="tAxBk4xrzIQZD8wi3jXY-28" value="" style="endArrow=none;html=1;" parent="1" target="tAxBk4xrzIQZD8wi3jXY-29" edge="1">
          <mxGeometry width="50" height="50" relative="1" as="geometry">
            <mxPoint x="300" y="113" as="sourcePoint" />
            <mxPoint x="350" y="63" as="targetPoint" />
          </mxGeometry>
        </mxCell>
        <mxCell id="tAxBk4xrzIQZD8wi3jXY-29" value="date" style="ellipse;whiteSpace=wrap;html=1;" parent="1" vertex="1">
          <mxGeometry x="330" y="23" width="80" height="67" as="geometry" />
        </mxCell>
        <mxCell id="tAxBk4xrzIQZD8wi3jXY-31" value="" style="edgeStyle=entityRelationEdgeStyle;fontSize=12;html=1;endArrow=ERzeroToMany;endFill=1;exitX=1;exitY=0.5;exitDx=0;exitDy=0;entryX=-0.012;entryY=0.128;entryDx=0;entryDy=0;entryPerimeter=0;" parent="1" source="tAxBk4xrzIQZD8wi3jXY-27" target="tAxBk4xrzIQZD8wi3jXY-23" edge="1">
          <mxGeometry width="100" height="100" relative="1" as="geometry">
            <mxPoint x="310" y="300" as="sourcePoint" />
            <mxPoint x="410" y="200" as="targetPoint" />
          </mxGeometry>
        </mxCell>
        <mxCell id="tAxBk4xrzIQZD8wi3jXY-32" value="" style="edgeStyle=entityRelationEdgeStyle;fontSize=12;html=1;endArrow=ERzeroToMany;endFill=1;exitX=0;exitY=0.5;exitDx=0;exitDy=0;entryX=0.994;entryY=0.03;entryDx=0;entryDy=0;entryPerimeter=0;" parent="1" source="tAxBk4xrzIQZD8wi3jXY-27" target="tAxBk4xrzIQZD8wi3jXY-1" edge="1">
          <mxGeometry width="100" height="100" relative="1" as="geometry">
            <mxPoint x="510" y="330" as="sourcePoint" />
            <mxPoint x="260" y="290" as="targetPoint" />
          </mxGeometry>
        </mxCell>
        <mxCell id="tAxBk4xrzIQZD8wi3jXY-34" value="Cencelling -?-" style="text;html=1;strokeColor=none;fillColor=none;align=center;verticalAlign=middle;whiteSpace=wrap;rounded=0;" parent="1" vertex="1">
          <mxGeometry x="281" y="200" width="40" height="20" as="geometry" />
        </mxCell>
        <mxCell id="tAxBk4xrzIQZD8wi3jXY-35" value="Campaign" style="swimlane;fontStyle=0;childLayout=stackLayout;horizontal=1;startSize=26;horizontalStack=0;resizeParent=1;resizeParentMax=0;resizeLast=0;collapsible=1;marginBottom=0;align=center;fontSize=14;" parent="1" vertex="1">
          <mxGeometry x="640" y="460" width="160" height="176" as="geometry" />
        </mxCell>
        <mxCell id="tAxBk4xrzIQZD8wi3jXY-37" value="codeCampaign" style="text;strokeColor=none;fillColor=none;spacingLeft=4;spacingRight=4;overflow=hidden;rotatable=0;points=[[0,0.5],[1,0.5]];portConstraint=eastwest;fontSize=12;fontStyle=4" parent="tAxBk4xrzIQZD8wi3jXY-35" vertex="1">
          <mxGeometry y="26" width="160" height="30" as="geometry" />
        </mxCell>
        <mxCell id="tAxBk4xrzIQZD8wi3jXY-38" value="nameOfCampaign" style="text;strokeColor=none;fillColor=none;spacingLeft=4;spacingRight=4;overflow=hidden;rotatable=0;points=[[0,0.5],[1,0.5]];portConstraint=eastwest;fontSize=12;" parent="tAxBk4xrzIQZD8wi3jXY-35" vertex="1">
          <mxGeometry y="56" width="160" height="30" as="geometry" />
        </mxCell>
        <mxCell id="tAxBk4xrzIQZD8wi3jXY-39" value="description" style="text;strokeColor=none;fillColor=none;spacingLeft=4;spacingRight=4;overflow=hidden;rotatable=0;points=[[0,0.5],[1,0.5]];portConstraint=eastwest;fontSize=12;" parent="tAxBk4xrzIQZD8wi3jXY-35" vertex="1">
          <mxGeometry y="86" width="160" height="30" as="geometry" />
        </mxCell>
        <mxCell id="tAxBk4xrzIQZD8wi3jXY-40" value="startDate" style="text;strokeColor=none;fillColor=none;spacingLeft=4;spacingRight=4;overflow=hidden;rotatable=0;points=[[0,0.5],[1,0.5]];portConstraint=eastwest;fontSize=12;" parent="tAxBk4xrzIQZD8wi3jXY-35" vertex="1">
          <mxGeometry y="116" width="160" height="30" as="geometry" />
        </mxCell>
        <mxCell id="tAxBk4xrzIQZD8wi3jXY-41" value="endDate" style="text;strokeColor=none;fillColor=none;spacingLeft=4;spacingRight=4;overflow=hidden;rotatable=0;points=[[0,0.5],[1,0.5]];portConstraint=eastwest;fontSize=12;" parent="tAxBk4xrzIQZD8wi3jXY-35" vertex="1">
          <mxGeometry y="146" width="160" height="30" as="geometry" />
        </mxCell>
        <mxCell id="m6Jd8tHprvZd4_-lkX7Y-61" style="edgeStyle=orthogonalEdgeStyle;rounded=0;orthogonalLoop=1;jettySize=auto;html=1;entryX=0.765;entryY=0;entryDx=0;entryDy=0;entryPerimeter=0;endArrow=ERzeroToMany;endFill=1;" edge="1" parent="1" source="tAxBk4xrzIQZD8wi3jXY-42" target="m6Jd8tHprvZd4_-lkX7Y-30">
          <mxGeometry relative="1" as="geometry" />
        </mxCell>
        <mxCell id="tAxBk4xrzIQZD8wi3jXY-42" value="Advertiser" style="shape=rhombus;perimeter=rhombusPerimeter;whiteSpace=wrap;html=1;align=center;" parent="1" vertex="1">
          <mxGeometry x="600" y="250" width="120" height="60" as="geometry" />
        </mxCell>
        <mxCell id="tAxBk4xrzIQZD8wi3jXY-43" value="" style="edgeStyle=entityRelationEdgeStyle;fontSize=12;html=1;endArrow=ERoneToMany;exitX=0.5;exitY=0;exitDx=0;exitDy=0;" parent="1" source="tAxBk4xrzIQZD8wi3jXY-42" target="tAxBk4xrzIQZD8wi3jXY-23" edge="1">
          <mxGeometry width="100" height="100" relative="1" as="geometry">
            <mxPoint x="600" y="300" as="sourcePoint" />
            <mxPoint x="700" y="200" as="targetPoint" />
          </mxGeometry>
        </mxCell>
        <mxCell id="tAxBk4xrzIQZD8wi3jXY-47" value="product -?-" style="text;html=1;strokeColor=none;fillColor=none;align=center;verticalAlign=middle;whiteSpace=wrap;rounded=0;" parent="1" vertex="1">
          <mxGeometry x="550" y="310" width="40" height="20" as="geometry" />
        </mxCell>
        <mxCell id="tAxBk4xrzIQZD8wi3jXY-48" value="Media" style="swimlane;fontStyle=0;childLayout=stackLayout;horizontal=1;startSize=26;horizontalStack=0;resizeParent=1;resizeParentMax=0;resizeLast=0;collapsible=1;marginBottom=0;align=center;fontSize=14;" parent="1" vertex="1">
          <mxGeometry x="250" y="470" width="160" height="86" as="geometry" />
        </mxCell>
        <mxCell id="tAxBk4xrzIQZD8wi3jXY-49" value="codeMedia" style="text;strokeColor=none;fillColor=none;spacingLeft=4;spacingRight=4;overflow=hidden;rotatable=0;points=[[0,0.5],[1,0.5]];portConstraint=eastwest;fontSize=12;fontStyle=4" parent="tAxBk4xrzIQZD8wi3jXY-48" vertex="1">
          <mxGeometry y="26" width="160" height="30" as="geometry" />
        </mxCell>
        <mxCell id="tAxBk4xrzIQZD8wi3jXY-50" value="name" style="text;strokeColor=none;fillColor=none;spacingLeft=4;spacingRight=4;overflow=hidden;rotatable=0;points=[[0,0.5],[1,0.5]];portConstraint=eastwest;fontSize=12;" parent="tAxBk4xrzIQZD8wi3jXY-48" vertex="1">
          <mxGeometry y="56" width="160" height="30" as="geometry" />
        </mxCell>
        <mxCell id="m6Jd8tHprvZd4_-lkX7Y-24" style="edgeStyle=orthogonalEdgeStyle;rounded=0;orthogonalLoop=1;jettySize=auto;html=1;entryX=1;entryY=0.25;entryDx=0;entryDy=0;endArrow=ERoneToMany;endFill=0;" edge="1" parent="1" source="m6Jd8tHprvZd4_-lkX7Y-20" target="tAxBk4xrzIQZD8wi3jXY-48">
          <mxGeometry relative="1" as="geometry" />
        </mxCell>
        <mxCell id="m6Jd8tHprvZd4_-lkX7Y-20" value="Happen" style="shape=rhombus;perimeter=rhombusPerimeter;whiteSpace=wrap;html=1;align=center;" vertex="1" parent="1">
          <mxGeometry x="455" y="531" width="120" height="60" as="geometry" />
        </mxCell>
        <mxCell id="m6Jd8tHprvZd4_-lkX7Y-26" style="edgeStyle=orthogonalEdgeStyle;rounded=0;orthogonalLoop=1;jettySize=auto;html=1;entryX=0.565;entryY=1.011;entryDx=0;entryDy=0;entryPerimeter=0;endArrow=ERzeroToMany;endFill=1;" edge="1" parent="1" source="m6Jd8tHprvZd4_-lkX7Y-21" target="tAxBk4xrzIQZD8wi3jXY-22">
          <mxGeometry relative="1" as="geometry">
            <mxPoint x="110" y="330" as="targetPoint" />
          </mxGeometry>
        </mxCell>
        <mxCell id="m6Jd8tHprvZd4_-lkX7Y-21" value="Mailling to" style="shape=rhombus;perimeter=rhombusPerimeter;whiteSpace=wrap;html=1;align=center;" vertex="1" parent="1">
          <mxGeometry x="-130" y="483" width="120" height="60" as="geometry" />
        </mxCell>
        <mxCell id="m6Jd8tHprvZd4_-lkX7Y-23" style="edgeStyle=orthogonalEdgeStyle;rounded=0;orthogonalLoop=1;jettySize=auto;html=1;endArrow=ERzeroToMany;endFill=1;exitX=0.5;exitY=1;exitDx=0;exitDy=0;entryX=-0.002;entryY=0.623;entryDx=0;entryDy=0;entryPerimeter=0;" edge="1" parent="1" source="m6Jd8tHprvZd4_-lkX7Y-21" target="m6Jd8tHprvZd4_-lkX7Y-30">
          <mxGeometry relative="1" as="geometry">
            <mxPoint x="90" y="590" as="sourcePoint" />
            <mxPoint x="130" y="590" as="targetPoint" />
          </mxGeometry>
        </mxCell>
        <mxCell id="m6Jd8tHprvZd4_-lkX7Y-33" value="" style="edgeStyle=entityRelationEdgeStyle;fontSize=12;html=1;endArrow=ERoneToMany;exitX=1;exitY=0.5;exitDx=0;exitDy=0;" edge="1" parent="1" source="m6Jd8tHprvZd4_-lkX7Y-20" target="tAxBk4xrzIQZD8wi3jXY-35">
          <mxGeometry width="100" height="100" relative="1" as="geometry">
            <mxPoint x="570" y="570" as="sourcePoint" />
            <mxPoint x="650" y="470" as="targetPoint" />
          </mxGeometry>
        </mxCell>
        <mxCell id="m6Jd8tHprvZd4_-lkX7Y-34" value="Open it" style="ellipse;whiteSpace=wrap;html=1;align=center;direction=west;" vertex="1" parent="1">
          <mxGeometry x="-30" y="390" width="100" height="40" as="geometry" />
        </mxCell>
        <mxCell id="m6Jd8tHprvZd4_-lkX7Y-39" value="Is A" style="triangle;whiteSpace=wrap;html=1;direction=south;" vertex="1" parent="1">
          <mxGeometry x="300" y="610" width="80" height="60" as="geometry" />
        </mxCell>
        <mxCell id="m6Jd8tHprvZd4_-lkX7Y-40" value="SocialMedia" style="swimlane;fontStyle=0;childLayout=stackLayout;horizontal=1;startSize=26;horizontalStack=0;resizeParent=1;resizeParentMax=0;resizeLast=0;collapsible=1;marginBottom=0;align=center;fontSize=14;" vertex="1" parent="1">
          <mxGeometry x="161" y="710" width="160" height="206" as="geometry" />
        </mxCell>
        <mxCell id="m6Jd8tHprvZd4_-lkX7Y-41" value="strartDay" style="text;strokeColor=none;fillColor=none;spacingLeft=4;spacingRight=4;overflow=hidden;rotatable=0;points=[[0,0.5],[1,0.5]];portConstraint=eastwest;fontSize=12;" vertex="1" parent="m6Jd8tHprvZd4_-lkX7Y-40">
          <mxGeometry y="26" width="160" height="30" as="geometry" />
        </mxCell>
        <mxCell id="m6Jd8tHprvZd4_-lkX7Y-42" value="URL" style="text;strokeColor=none;fillColor=none;spacingLeft=4;spacingRight=4;overflow=hidden;rotatable=0;points=[[0,0.5],[1,0.5]];portConstraint=eastwest;fontSize=12;fontStyle=4" vertex="1" parent="m6Jd8tHprvZd4_-lkX7Y-40">
          <mxGeometry y="56" width="160" height="30" as="geometry" />
        </mxCell>
        <mxCell id="m6Jd8tHprvZd4_-lkX7Y-43" value="endDay" style="text;strokeColor=none;fillColor=none;spacingLeft=4;spacingRight=4;overflow=hidden;rotatable=0;points=[[0,0.5],[1,0.5]];portConstraint=eastwest;fontSize=12;" vertex="1" parent="m6Jd8tHprvZd4_-lkX7Y-40">
          <mxGeometry y="86" width="160" height="30" as="geometry" />
        </mxCell>
        <mxCell id="m6Jd8tHprvZd4_-lkX7Y-52" value="numOfSharing" style="text;strokeColor=none;fillColor=none;spacingLeft=4;spacingRight=4;overflow=hidden;rotatable=0;points=[[0,0.5],[1,0.5]];portConstraint=eastwest;fontSize=12;" vertex="1" parent="m6Jd8tHprvZd4_-lkX7Y-40">
          <mxGeometry y="116" width="160" height="30" as="geometry" />
        </mxCell>
        <mxCell id="m6Jd8tHprvZd4_-lkX7Y-53" value="numOfLikes" style="text;strokeColor=none;fillColor=none;spacingLeft=4;spacingRight=4;overflow=hidden;rotatable=0;points=[[0,0.5],[1,0.5]];portConstraint=eastwest;fontSize=12;" vertex="1" parent="m6Jd8tHprvZd4_-lkX7Y-40">
          <mxGeometry y="146" width="160" height="30" as="geometry" />
        </mxCell>
        <mxCell id="m6Jd8tHprvZd4_-lkX7Y-54" value="numOfComments" style="text;strokeColor=none;fillColor=none;spacingLeft=4;spacingRight=4;overflow=hidden;rotatable=0;points=[[0,0.5],[1,0.5]];portConstraint=eastwest;fontSize=12;" vertex="1" parent="m6Jd8tHprvZd4_-lkX7Y-40">
          <mxGeometry y="176" width="160" height="30" as="geometry" />
        </mxCell>
        <mxCell id="m6Jd8tHprvZd4_-lkX7Y-44" value="PersonalMedia" style="swimlane;fontStyle=0;childLayout=stackLayout;horizontal=1;startSize=26;horizontalStack=0;resizeParent=1;resizeParentMax=0;resizeLast=0;collapsible=1;marginBottom=0;align=center;fontSize=14;" vertex="1" parent="1">
          <mxGeometry x="373" y="710" width="160" height="56" as="geometry" />
        </mxCell>
        <mxCell id="m6Jd8tHprvZd4_-lkX7Y-45" value="Item 1" style="text;strokeColor=none;fillColor=none;spacingLeft=4;spacingRight=4;overflow=hidden;rotatable=0;points=[[0,0.5],[1,0.5]];portConstraint=eastwest;fontSize=12;" vertex="1" parent="m6Jd8tHprvZd4_-lkX7Y-44">
          <mxGeometry y="26" width="160" height="30" as="geometry" />
        </mxCell>
        <mxCell id="m6Jd8tHprvZd4_-lkX7Y-51" value="" style="endArrow=none;html=1;rounded=0;entryX=0.5;entryY=0;entryDx=0;entryDy=0;exitX=1;exitY=0.5;exitDx=0;exitDy=0;" edge="1" parent="1" source="m6Jd8tHprvZd4_-lkX7Y-21" target="m6Jd8tHprvZd4_-lkX7Y-34">
          <mxGeometry relative="1" as="geometry">
            <mxPoint x="-40" y="479.16999999999996" as="sourcePoint" />
            <mxPoint x="120" y="479.16999999999996" as="targetPoint" />
          </mxGeometry>
        </mxCell>
        <mxCell id="m6Jd8tHprvZd4_-lkX7Y-55" value="disjoin" style="text;strokeColor=none;fillColor=none;spacingLeft=4;spacingRight=4;overflow=hidden;rotatable=0;points=[[0,0.5],[1,0.5]];portConstraint=eastwest;fontSize=12;" vertex="1" parent="1">
          <mxGeometry x="394" y="620" width="56" height="30" as="geometry" />
        </mxCell>
        <mxCell id="m6Jd8tHprvZd4_-lkX7Y-56" value="" style="endArrow=none;html=1;rounded=0;exitX=0.438;exitY=1.025;exitDx=0;exitDy=0;exitPerimeter=0;" edge="1" parent="1" source="tAxBk4xrzIQZD8wi3jXY-50">
          <mxGeometry relative="1" as="geometry">
            <mxPoint x="310" y="559" as="sourcePoint" />
            <mxPoint x="320" y="610" as="targetPoint" />
          </mxGeometry>
        </mxCell>
        <mxCell id="m6Jd8tHprvZd4_-lkX7Y-57" value="" style="endArrow=none;html=1;rounded=0;exitX=0.558;exitY=1.067;exitDx=0;exitDy=0;exitPerimeter=0;" edge="1" parent="1" source="tAxBk4xrzIQZD8wi3jXY-50" target="m6Jd8tHprvZd4_-lkX7Y-39">
          <mxGeometry relative="1" as="geometry">
            <mxPoint x="340" y="560" as="sourcePoint" />
            <mxPoint x="480" y="690" as="targetPoint" />
          </mxGeometry>
        </mxCell>
        <mxCell id="m6Jd8tHprvZd4_-lkX7Y-59" value="" style="endArrow=none;html=1;rounded=0;exitX=1;exitY=0.5;exitDx=0;exitDy=0;entryX=0.5;entryY=0;entryDx=0;entryDy=0;" edge="1" parent="1" source="m6Jd8tHprvZd4_-lkX7Y-39" target="m6Jd8tHprvZd4_-lkX7Y-40">
          <mxGeometry relative="1" as="geometry">
            <mxPoint x="320" y="710" as="sourcePoint" />
            <mxPoint x="480" y="710" as="targetPoint" />
          </mxGeometry>
        </mxCell>
        <mxCell id="m6Jd8tHprvZd4_-lkX7Y-60" value="" style="endArrow=none;html=1;rounded=0;exitX=1;exitY=0.5;exitDx=0;exitDy=0;entryX=0.596;entryY=-0.013;entryDx=0;entryDy=0;entryPerimeter=0;" edge="1" parent="1" source="m6Jd8tHprvZd4_-lkX7Y-39" target="m6Jd8tHprvZd4_-lkX7Y-44">
          <mxGeometry relative="1" as="geometry">
            <mxPoint x="320" y="710" as="sourcePoint" />
            <mxPoint x="480" y="710" as="targetPoint" />
          </mxGeometry>
        </mxCell>
        <mxCell id="m6Jd8tHprvZd4_-lkX7Y-62" value="TypeOfClubMember" style="swimlane;fontStyle=0;childLayout=stackLayout;horizontal=1;startSize=26;horizontalStack=0;resizeParent=1;resizeParentMax=0;resizeLast=0;collapsible=1;marginBottom=0;align=center;fontSize=14;" vertex="1" parent="1">
          <mxGeometry x="-620" y="60" width="160" height="116" as="geometry" />
        </mxCell>
        <mxCell id="m6Jd8tHprvZd4_-lkX7Y-63" value="sigmentCode" style="text;strokeColor=none;fillColor=none;spacingLeft=4;spacingRight=4;overflow=hidden;rotatable=0;points=[[0,0.5],[1,0.5]];portConstraint=eastwest;fontSize=12;fontStyle=4" vertex="1" parent="m6Jd8tHprvZd4_-lkX7Y-62">
          <mxGeometry y="26" width="160" height="30" as="geometry" />
        </mxCell>
        <mxCell id="m6Jd8tHprvZd4_-lkX7Y-71" value="name" style="text;strokeColor=none;fillColor=none;spacingLeft=4;spacingRight=4;overflow=hidden;rotatable=0;points=[[0,0.5],[1,0.5]];portConstraint=eastwest;fontSize=12;fontStyle=0" vertex="1" parent="m6Jd8tHprvZd4_-lkX7Y-62">
          <mxGeometry y="56" width="160" height="30" as="geometry" />
        </mxCell>
        <mxCell id="m6Jd8tHprvZd4_-lkX7Y-72" value="description" style="text;strokeColor=none;fillColor=none;spacingLeft=4;spacingRight=4;overflow=hidden;rotatable=0;points=[[0,0.5],[1,0.5]];portConstraint=eastwest;fontSize=12;fontStyle=0" vertex="1" parent="m6Jd8tHprvZd4_-lkX7Y-62">
          <mxGeometry y="86" width="160" height="30" as="geometry" />
        </mxCell>
        <mxCell id="m6Jd8tHprvZd4_-lkX7Y-74" style="edgeStyle=orthogonalEdgeStyle;rounded=0;orthogonalLoop=1;jettySize=auto;html=1;entryX=0;entryY=0.5;entryDx=0;entryDy=0;endArrow=ERzeroToMany;endFill=1;" edge="1" parent="1" source="m6Jd8tHprvZd4_-lkX7Y-73" target="tAxBk4xrzIQZD8wi3jXY-7">
          <mxGeometry relative="1" as="geometry" />
        </mxCell>
        <mxCell id="m6Jd8tHprvZd4_-lkX7Y-75" style="edgeStyle=orthogonalEdgeStyle;rounded=0;orthogonalLoop=1;jettySize=auto;html=1;endArrow=ERzeroToMany;endFill=1;entryX=1;entryY=0.25;entryDx=0;entryDy=0;" edge="1" parent="1" source="m6Jd8tHprvZd4_-lkX7Y-73" target="m6Jd8tHprvZd4_-lkX7Y-78">
          <mxGeometry relative="1" as="geometry">
            <mxPoint x="-400" y="80" as="targetPoint" />
          </mxGeometry>
        </mxCell>
        <mxCell id="m6Jd8tHprvZd4_-lkX7Y-73" value="To Be" style="shape=rhombus;perimeter=rhombusPerimeter;whiteSpace=wrap;html=1;align=center;" vertex="1" parent="1">
          <mxGeometry x="-380" y="195" width="120" height="60" as="geometry" />
        </mxCell>
        <mxCell id="m6Jd8tHprvZd4_-lkX7Y-79" value="R,F,M" style="ellipse;whiteSpace=wrap;html=1;align=center;" vertex="1" parent="1">
          <mxGeometry x="-413" y="330" width="100" height="40" as="geometry" />
        </mxCell>
        <mxCell id="m6Jd8tHprvZd4_-lkX7Y-80" value="" style="endArrow=none;html=1;rounded=0;entryX=0.556;entryY=0.018;entryDx=0;entryDy=0;entryPerimeter=0;exitX=0.5;exitY=1;exitDx=0;exitDy=0;" edge="1" parent="1" source="m6Jd8tHprvZd4_-lkX7Y-76" target="m6Jd8tHprvZd4_-lkX7Y-79">
          <mxGeometry relative="1" as="geometry">
            <mxPoint x="-320" y="270" as="sourcePoint" />
            <mxPoint x="-350" y="320" as="targetPoint" />
          </mxGeometry>
        </mxCell>
      </root>
    </mxGraphModel>
  </diagram>
</mxfile>
